<svg width="512" height="512" viewBox="0 0 512 512" fill="none" xmlns="http://www.w3.org/2000/svg">
<g filter="url(#filter0_f_1_3)">
<path d="M372 40H140C84.7715 40 40 84.7715 40 140V372C40 427.228 84.7715 472 140 472H372C427.228 472 472 427.228 472 372V140C472 84.7715 427.228 40 372 40Z" fill="url(#paint0_linear_1_3)"/>
</g>
<path d="M392.153 64H120.847C87.7944 64 61 132.769 61 217.6V294.4C61 379.231 87.7944 448 120.847 448H392.153C425.206 448 452 379.231 452 294.4V217.6C452 132.769 425.206 64 392.153 64Z" fill="white" fill-opacity="0.1"/>
<path d="M192.164 321C191.631 321 191.031 320.8 190.364 320.4C189.697 320 189.231 319.133 188.964 317.8L158.764 195.2C158.631 194.267 158.231 193.867 157.564 194C156.897 194 156.564 194.467 156.564 195.4L152.564 305.8C152.431 309.533 153.031 312.4 154.364 314.4C155.697 316.267 158.031 317.467 161.364 318L163.964 318.4C165.697 318.533 166.564 319.333 166.564 320.8C166.564 322.267 165.564 323 163.564 323H134.964C132.964 323 131.964 322.267 131.964 320.8C131.964 319.333 132.831 318.533 134.564 318.4L137.164 318C140.631 317.467 142.964 316.267 144.164 314.4C145.497 312.4 146.231 309.533 146.364 305.8L150.364 192.2C150.497 189.4 150.097 187.533 149.164 186.6C148.231 185.667 146.231 184.933 143.164 184.4L138.564 183.6C136.831 183.2 135.964 182.4 135.964 181.2C135.964 179.733 136.964 179 138.964 179H162.964C167.097 179 169.631 181 170.564 185L194.764 284.8C195.031 285.733 195.431 286.2 195.964 286.2C196.631 286.2 197.031 285.733 197.164 284.8L222.364 184C223.164 180.667 225.297 179 228.764 179H252.364C254.364 179 255.364 179.733 255.364 181.2C255.364 182.4 254.497 183.2 252.764 183.6L248.164 184.4C245.364 184.933 243.497 185.667 242.564 186.6C241.631 187.533 241.231 189.4 241.364 192.2L245.364 309.8C245.497 312.6 245.964 314.467 246.764 315.4C247.564 316.333 249.364 317.067 252.164 317.6L256.764 318.4C258.497 318.8 259.364 319.6 259.364 320.8C259.364 322.267 258.364 323 256.364 323H220.164C218.164 323 217.164 322.267 217.164 320.8C217.164 319.6 218.031 318.8 219.764 318.4L224.364 317.6C227.164 317.067 229.031 316.333 229.964 315.4C230.897 314.467 231.297 312.6 231.164 309.8L227.764 195.4C227.764 194.467 227.431 194 226.764 194C226.231 193.867 225.831 194.2 225.564 195L195.164 317.8C194.897 319.133 194.431 320 193.764 320.4C193.231 320.8 192.697 321 192.164 321Z" fill="#1A1A1A"/>
<path d="M336.572 325C336.039 325 335.505 324.8 334.972 324.4C334.572 324 334.372 323.133 334.372 321.8L333.372 262.2C333.372 260.733 332.972 259.933 332.172 259.8C331.372 259.533 330.639 260.067 329.972 261.4L299.172 321.8C298.505 323.133 297.905 324 297.372 324.4C296.839 324.8 296.305 325 295.772 325C295.239 325 294.705 324.8 294.172 324.4C293.639 324 293.372 323.133 293.372 321.8L291.172 195C291.039 191.267 290.572 188.667 289.772 187.2C288.972 185.733 287.305 184.733 284.772 184.2L282.172 183.6C280.572 183.2 279.772 182.4 279.772 181.2C279.772 180.4 280.105 179.867 280.772 179.6C281.439 179.2 282.239 179 283.172 179H315.172C316.905 179 317.772 179.667 317.772 181C317.772 182.2 316.572 183.067 314.172 183.6L311.772 184C309.505 184.4 307.705 185.2 306.372 186.4C305.172 187.467 304.572 189.467 304.572 192.4L305.772 288.2C305.772 289.4 306.172 290.067 306.972 290.2C307.772 290.333 308.439 289.8 308.972 288.6L325.372 257.2C328.039 252 329.972 247.067 331.172 242.4C332.372 237.733 332.905 232.4 332.772 226.4L332.172 195C332.039 191.267 331.705 188.6 331.172 187C330.772 185.4 329.839 184.467 328.372 184.2L325.772 183.6C324.039 183.2 323.172 182.467 323.172 181.4C323.172 179.8 324.372 179 326.772 179H353.572C355.305 179 356.172 179.667 356.172 181C356.172 182.333 354.972 183.2 352.572 183.6L350.172 184C348.439 184.267 347.239 185 346.572 186.2C346.039 187.4 345.772 189.467 345.772 192.4L346.172 219.4C346.172 220.733 346.572 221.533 347.372 221.8C348.172 221.933 348.839 221.4 349.372 220.2L361.772 196.6C364.439 191.533 365.772 188.2 365.772 186.6C365.772 185 365.172 184.133 363.972 184L361.972 183.6C360.239 183.2 359.372 182.4 359.372 181.2C359.372 179.733 360.505 179 362.772 179H381.572C383.705 179 384.772 179.667 384.772 181C384.772 182.467 383.439 183.333 380.772 183.6L378.572 183.8C376.705 183.933 374.972 185 373.372 187C371.772 189 369.839 192.267 367.572 196.8L353.772 223.4C351.105 228.733 349.172 233.733 347.972 238.4C346.772 242.933 346.239 248.2 346.372 254.2L346.772 287.4C346.772 288.6 347.172 289.267 347.972 289.4C348.772 289.4 349.439 288.867 349.972 287.8L393.772 196.6C395.639 192.733 396.505 189.8 396.372 187.8C396.372 185.8 395.239 184.533 392.972 184L390.972 183.6C389.239 183.2 388.372 182.4 388.372 181.2C388.372 179.733 389.505 179 391.772 179H414.372C416.239 179 417.172 179.733 417.172 181.2C417.172 182.667 415.839 183.467 413.172 183.6L410.972 183.8C409.105 183.933 407.439 184.8 405.972 186.4C404.639 187.867 402.639 191.333 399.972 196.8L339.972 321.8C339.439 323.133 338.839 324 338.172 324.4C337.639 324.8 337.105 325 336.572 325Z" fill="white"/>
<defs>
<filter id="filter0_f_1_3" x="10" y="10" width="492" height="492" filterUnits="userSpaceOnUse" color-interpolation-filters="sRGB">
<feFlood flood-opacity="0" result="BackgroundImageFix"/>
<feBlend mode="normal" in="SourceGraphic" in2="BackgroundImageFix" result="shape"/>
<feGaussianBlur stdDeviation="15" result="effect1_foregroundBlur_1_3"/>
</filter>
<linearGradient id="paint0_linear_1_3" x1="40" y1="40" x2="40" y2="472" gradientUnits="userSpaceOnUse">
<stop stop-color="#FF8159"/>
<stop offset="1" stop-color="#D44A1E"/>
</linearGradient>
</defs>
</svg>
